<svg xmlns="http://www.w3.org/2000/svg" viewBox="0 0 16 16" id="database"><path fill="#231f20" d="M11.498-.002c-.219.002-.436.02-.652.055l-.102.013a4.498 4.498 0 0 0-3.479 2.93H1.16C.52 2.996 0 3.515 0 4.154v2.678c0 .25.099.47.234.66C.1 7.682 0 7.9 0 8.15v2.678c0 .25.099.47.234.66-.135.19-.234.408-.234.658v2.678c0 .64.52 1.158 1.16 1.158h10.668c.64 0 1.158-.518 1.158-1.158v-2.678c0-.25-.094-.468-.23-.658.136-.19.23-.41.23-.66V8.73a4.495 4.495 0 0 0 2.162-1.619v-.004c.133-.182.252-.374.356-.574l.002-.004.004-.008c.084-.17.157-.344.219-.523a4.396 4.396 0 0 0 .18-.646 4.42 4.42 0 0 0 .048-.334c.016-.13.026-.26.031-.39.002-.044.012-.087.012-.132 0-.04-.01-.077-.012-.117a4.5 4.5 0 0 0-.115-.9 4.504 4.504 0 0 0-.203-.647c-.02-.05-.039-.1-.06-.148a4.504 4.504 0 0 0-.36-.66c-.012-.018-.021-.038-.033-.055a4.473 4.473 0 0 0-.492-.6l-.067-.07a4.507 4.507 0 0 0-.601-.496L13.99.756a4.506 4.506 0 0 0-.676-.367l-.11-.05a4.482 4.482 0 0 0-.72-.226l-.13-.029a4.504 4.504 0 0 0-.856-.086zM11.502 1c.236 0 .468.023.691.068h.004l.035.01c.218.047.43.112.631.197.205.087.396.193.578.315l.018.012c.17.115.33.247.477.39l.054.049c.134.135.253.284.364.44.024.032.047.066.07.1a3.51 3.51 0 0 1 .318.614 3.45 3.45 0 0 1 .25 1.244l.004.055a3.627 3.627 0 0 1-.004.082 3.48 3.48 0 0 1-.096.73 3.45 3.45 0 0 1-.511 1.163l-.016.021c-.103.148-.22.286-.344.416a3.496 3.496 0 0 1-.078.084 3.54 3.54 0 0 1-.441.362l-.084.06c-.157.104-.321.19-.494.268a3.5 3.5 0 0 1-.114.05c-.173.071-.355.126-.54.168-.039.01-.077.02-.116.028a3.508 3.508 0 0 1-.66.064l-.03-.002a3.494 3.494 0 0 1-.652-.066l-.011-.002-.032-.008a3.498 3.498 0 0 1-1.744-.945 3.512 3.512 0 0 1-.422-.514c-.001-.002-.004-.003-.005-.006a3.508 3.508 0 0 1-.317-.586l-.006-.013a3.447 3.447 0 0 1-.273-1.352 3.5 3.5 0 0 1 2.127-3.215l.017-.008a3.475 3.475 0 0 1 .666-.205c.223-.044.45-.068.686-.068zm-.02 1.076a.5.5 0 0 0-.343.14L9.662 3.634l.693.72.63-.603v2.723h1V3.729l.673.628.686-.728-1.518-1.418a.497.497 0 0 0-.344-.135zM1.16 3.994h5.875c-.02.166-.031.333-.033.5.002.213.019.426.05.637l.014.086c.068.415.194.817.373 1.197l.014.03c.09.19.193.373.309.548H1.16a.161.161 0 0 1-.162-.16V4.154c0-.089.073-.16.162-.16zM2.002 5v1h2.996V5H2.002zM1.16 7.99h7.516c.8.646 1.794 1 2.822 1h.002l.002.002c.014 0 .027-.003.041-.004.149-.001.298-.01.445-.027v1.867a.16.16 0 0 1-.16.16H1.16a.16.16 0 0 1-.16-.16V8.15a.16.16 0 0 1 .16-.16zm8.84 1v.998h.998V8.99H10zM2.002 9v1h2.996V9H2.002zm-.842 2.986h10.668a.16.16 0 0 1 .16.16v2.678a.16.16 0 0 1-.16.16H1.16a.161.161 0 0 1-.162-.16v-2.678c0-.088.073-.16.162-.16zm8.84 1v.998h.998v-.998H10zM2.002 13v1h2.996v-1H2.002z"></path></svg>