<svg xmlns="http://www.w3.org/2000/svg" width="48" height="48" id="databse"><g fill="#fff" transform="translate(8.5 -1012.362)"><circle cx="15.5" cy="1036.362" r="24" fill="#ffa40b" fill-rule="evenodd"></circle><path style="line-height:normal;text-indent:0;text-align:start;text-decoration-line:none;text-decoration-style:solid;text-decoration-color:#000;text-transform:none;block-progression:tb;isolation:auto;mix-blend-mode:normal" fill="#ff7712" d="M25.45 47.95a24 24 0 0 0 .247-.01 24 24 0 0 0 2.383-.29 24 24 0 0 0 2.34-.525 24 24 0 0 0 2.277-.756 24 24 0 0 0 2.19-.98 24 24 0 0 0 2.08-1.194 24 24 0 0 0 1.951-1.394 24 24 0 0 0 1.803-1.584 24 24 0 0 0 1.634-1.756 24 24 0 0 0 1.454-1.91 24 24 0 0 0 1.254-2.045 24 24 0 0 0 1.042-2.16 24 24 0 0 0 .823-2.254 24 24 0 0 0 .593-2.324 24 24 0 0 0 .36-2.372A24 24 0 0 0 48 24a24 24 0 0 0-.055-1.555L37 11.5a.5.5 0 0 0-.5-.5H20.889l-.948-.947c-.061-.062-.129-.117-.193-.176-.063-.059-.126-.117-.191-.174a7.065 7.065 0 0 0-.455-.36c-.05-.035-.095-.072-.145-.107a7.01 7.01 0 0 0-.652-.402c-.044-.023-.09-.042-.133-.064a6.954 6.954 0 0 0-.574-.264c-.075-.03-.153-.055-.229-.082a6.9 6.9 0 0 0-.771-.233 6.918 6.918 0 0 0-.543-.103c-.086-.013-.17-.027-.256-.037A7.01 7.01 0 0 0 15 8c-3.86 0-7 3.14-7 7 0 .35.034.691.084 1.027.011.076.021.152.035.227.059.323.139.639.24.945.02.058.042.115.063.172.104.288.224.567.363.836.018.034.033.068.05.102a6.992 6.992 0 0 0 .65.982c.177.227.362.449.566.652l.097.096L13 22.893V35.5a.5.5 0 0 0 .5.5l2.5 2.5a.5.5 0 0 0 .5.5l8.95 8.95z" color="#000" font-family="sans-serif" font-weight="400" transform="translate(-8.5 1012.362)"></path><path d="M8 1C4.14 1 1 4.14 1 8c0 3.165 2.112 5.842 5 6.705V28.5a.5.5 0 0 0 .5.5H9v2.5a.5.5 0 0 0 .5.5h2a.5.5 0 0 0 .5-.5V29h13v2.5a.5.5 0 0 0 .5.5h2a.5.5 0 0 0 .5-.5V29h1.5a.5.5 0 0 0 .5-.5v-24a.5.5 0 0 0-.5-.5H13.736A6.994 6.994 0 0 0 8 1Zm0 1c3.32 0 6 2.68 6 6s-2.68 6-6 6-6-2.68-6-6 2.68-6 6-6Zm-.018 1.4c-1.121 0-2.029.934-2.029 2.06v1.214a3.344 3.344 0 0 0-1.238 2.588c0 1.833 1.471 3.34 3.285 3.34s3.285-1.507 3.285-3.34c0-1.794-1.411-3.264-3.172-3.326A.5.5 0 0 0 8 5.924c-.368 0-.716.075-1.047.19V5.46c0-.6.455-1.06 1.03-1.06h.035c.574 0 1.029.46 1.029 1.06a.5.5 0 1 0 1 0c0-1.127-.908-2.06-2.03-2.06h-.035zM14.314 5H29v7H13.736c.5-.716.87-1.53 1.075-2.406.334.25.742.406 1.189.406 1.099 0 2-.901 2-2s-.901-2-2-2c-.447 0-.857.153-1.191.404A6.938 6.938 0 0 0 14.314 5ZM21 6c-1.099 0-2 .901-2 2s.901 2 2 2 2-.901 2-2-.901-2-2-2zm5 0c-1.099 0-2 .901-2 2s.901 2 2 2 2-.901 2-2-.901-2-2-2ZM8 6.924c1.263 0 2.285 1.035 2.285 2.338 0 1.302-1.022 2.34-2.285 2.34-1.263 0-2.285-1.038-2.285-2.34 0-.806.394-1.51.992-1.93a.5.5 0 0 0 .027-.016c.05-.033.102-.058.153-.087.055-.032.11-.065.168-.092.053-.025.109-.044.164-.065.077-.028.155-.054.236-.074.047-.012.093-.024.14-.033.132-.024.267-.041.405-.041ZM16 7c.558 0 1 .442 1 1s-.442 1-1 1-1-.442-1-1 .442-1 1-1zm5 0c.558 0 1 .442 1 1s-.442 1-1 1-1-.442-1-1 .442-1 1-1zm5 0c.558 0 1 .442 1 1s-.442 1-1 1-1-.442-1-1 .442-1 1-1zM8 7.602v.003c-.543 0-1.004.449-1.004.997 0 .273.114.526.295.705a.5.5 0 0 0 .004 0c.058.056.134.091.205.132v.65a.5.5 0 1 0 1 0v-.65c.072-.041.148-.077.207-.134a.996.996 0 0 0 .297-.707c0-.548-.461-.996-1.004-.996ZM12.889 13H29v7H7v-5.08c.328.047.66.08 1 .08a6.973 6.973 0 0 0 4.889-2zM16 14c-1.099 0-2 .901-2 2s.901 2 2 2 2-.901 2-2-.901-2-2-2zm5 0c-1.099 0-2 .901-2 2s.901 2 2 2 2-.901 2-2-.901-2-2-2zm5 0c-1.099 0-2 .901-2 2s.901 2 2 2 2-.901 2-2-.901-2-2-2zm-10 1c.558 0 1 .442 1 1s-.442 1-1 1-1-.442-1-1 .442-1 1-1zm5 0c.558 0 1 .442 1 1s-.442 1-1 1-1-.442-1-1 .442-1 1-1zm5 0c.558 0 1 .442 1 1s-.442 1-1 1-1-.442-1-1 .442-1 1-1zM7 21h22v7H7v-7zm9 1c-1.099 0-2 .901-2 2s.901 2 2 2 2-.901 2-2-.901-2-2-2zm5 0c-1.099 0-2 .901-2 2s.901 2 2 2 2-.901 2-2-.901-2-2-2zm5 0c-1.099 0-2 .901-2 2s.901 2 2 2 2-.901 2-2-.901-2-2-2zm-10 1c.558 0 1 .442 1 1s-.442 1-1 1-1-.442-1-1 .442-1 1-1zm5 0c.558 0 1 .442 1 1s-.442 1-1 1-1-.442-1-1 .442-1 1-1zm5 0c.558 0 1 .442 1 1s-.442 1-1 1-1-.442-1-1 .442-1 1-1zm-16 6h1v2h-1v-2zm16 0h1v2h-1v-2z" color="#000" font-family="sans-serif" font-weight="400" overflow="visible" transform="translate(-1.5 1019.362)" style="line-height:normal;text-indent:0;text-align:start;text-decoration-line:none;text-decoration-style:solid;text-decoration-color:#000;text-transform:none;block-progression:tb;isolation:auto;mix-blend-mode:normal"></path></g></svg>